<svg version="1.1" id="Layer_1" xmlns="http://www.w3.org/2000/svg" xmlns:xlink="http://www.w3.org/1999/xlink" x="0px" y="0px"
	 width="100%" viewBox="0 0 192 192" enable-background="new 0 0 192 192" xml:space="preserve">
<path fill="#10182B" opacity="1.000000" stroke="none" 
	d="
M0.999998,183.000000 
	C1.000000,125.979103 1.000000,68.958206 1.345440,11.437431 
	C4.793920,7.625032 7.896960,4.312516 11.000000,1.000000 
	C68.020897,1.000000 125.041786,1.000000 182.562561,1.345438 
	C186.374954,4.793917 189.687485,7.896958 193.000000,10.999999 
	C193.000000,68.020897 193.000000,125.041786 192.654556,182.562561 
	C189.206070,186.374954 186.103043,189.687485 183.000000,193.000000 
	C125.979103,193.000000 68.958206,193.000000 11.437426,192.654556 
	C7.625023,189.206085 4.312509,186.103043 0.999998,183.000000 
M117.527092,53.938976 
	C109.669670,56.522156 103.342354,61.179733 98.714432,68.038818 
	C87.872520,84.107727 87.940880,110.291580 98.812691,126.261040 
	C113.172356,147.353775 146.291748,147.153488 159.877426,125.728882 
	C162.141342,122.158669 163.240112,117.849617 165.045151,113.475204 
	C160.260849,113.475204 156.840164,113.475204 153.513123,113.475204 
	C150.498428,123.987221 143.649612,129.814041 133.233444,131.167404 
	C121.942421,132.634445 113.012268,128.617233 106.930672,118.788330 
	C100.966751,109.149612 100.681648,98.531898 102.248566,87.858620 
	C104.282135,74.006821 113.961327,64.041794 125.716850,62.833199 
	C139.587387,61.407162 148.167587,66.832306 153.788101,80.650871 
	C157.186539,80.650871 160.618286,80.650871 165.157639,80.650871 
	C163.276230,76.152664 162.100296,71.969391 159.927902,68.391075 
	C151.686157,54.815395 136.236557,49.522587 117.527092,53.938976 
M51.500111,140.738342 
	C61.264126,140.738342 71.028137,140.738342 80.858002,140.738342 
	C80.858002,137.198135 80.858002,134.271637 80.858002,130.774841 
	C67.442986,130.774841 54.251015,130.774841 40.798740,130.774841 
	C40.798740,104.783508 40.798740,79.367676 40.798740,53.738693 
	C36.995373,53.738693 33.476967,53.738693 29.906986,53.738693 
	C29.906986,82.833237 29.906986,111.551430 29.906986,140.738327 
	C36.940636,140.738327 43.720451,140.738327 51.500111,140.738342 
z"/>
<path fill="#000000" opacity="1.000000" stroke="none" 
	d="
M10.513435,1.000000 
	C7.896960,4.312516 4.793920,7.625032 1.345440,10.968774 
	C1.000000,7.747543 1.000000,4.495087 1.000000,1.000000 
	C4.006597,1.000000 7.016734,1.000000 10.513435,1.000000 
z"/>
<path fill="#000000" opacity="1.000000" stroke="none" 
	d="
M193.000000,10.513434 
	C189.687485,7.896958 186.374954,4.793917 183.031219,1.345438 
	C186.252457,1.000000 189.504913,1.000000 193.000000,1.000000 
	C193.000000,4.006597 193.000000,7.016734 193.000000,10.513434 
z"/>
<path fill="#000000" opacity="1.000000" stroke="none" 
	d="
M0.999998,183.486572 
	C4.312509,186.103043 7.625023,189.206085 10.968769,192.654556 
	C7.747546,193.000000 4.495092,193.000000 1.000000,193.000000 
	C1.000000,189.993408 1.000000,186.983276 0.999998,183.486572 
z"/>
<path fill="#000000" opacity="1.000000" stroke="none" 
	d="
M183.486572,193.000000 
	C186.103043,189.687485 189.206070,186.374954 192.654556,183.031219 
	C193.000000,186.252457 193.000000,189.504898 193.000000,193.000000 
	C189.993408,193.000000 186.983276,193.000000 183.486572,193.000000 
z"/>
<path fill="#F7F7F8" opacity="1.000000" stroke="none" 
	d="
M117.919159,53.841984 
	C136.236557,49.522587 151.686157,54.815395 159.927902,68.391075 
	C162.100296,71.969391 163.276230,76.152664 165.157639,80.650871 
	C160.618286,80.650871 157.186539,80.650871 153.788101,80.650871 
	C148.167587,66.832306 139.587387,61.407162 125.716850,62.833199 
	C113.961327,64.041794 104.282135,74.006821 102.248566,87.858620 
	C100.681648,98.531898 100.966751,109.149612 106.930672,118.788330 
	C113.012268,128.617233 121.942421,132.634445 133.233444,131.167404 
	C143.649612,129.814041 150.498428,123.987221 153.513123,113.475204 
	C156.840164,113.475204 160.260849,113.475204 165.045151,113.475204 
	C163.240112,117.849617 162.141342,122.158669 159.877426,125.728882 
	C146.291748,147.153488 113.172356,147.353775 98.812691,126.261040 
	C87.940880,110.291580 87.872520,84.107727 98.714432,68.038818 
	C103.342354,61.179733 109.669670,56.522156 117.919159,53.841984 
z"/>
<path fill="#F8F8F8" opacity="1.000000" stroke="none" 
	d="
M51.000191,140.738342 
	C43.720451,140.738327 36.940636,140.738327 29.906986,140.738327 
	C29.906986,111.551430 29.906986,82.833237 29.906986,53.738693 
	C33.476967,53.738693 36.995373,53.738693 40.798740,53.738693 
	C40.798740,79.367676 40.798740,104.783508 40.798740,130.774841 
	C54.251015,130.774841 67.442986,130.774841 80.858002,130.774841 
	C80.858002,134.271637 80.858002,137.198135 80.858002,140.738342 
	C71.028137,140.738342 61.264126,140.738342 51.000191,140.738342 
z"/>
</svg>